<?xml version="1.0" encoding="UTF-8"?>
<svg version="1.1" xmlns="http://www.w3.org/2000/svg" width="500" height="500">
<path d="M0 0 C6.17492411 4.7297291 8.66649046 11.29388972 9.9609375 18.78125 C10.04312475 20.437603 10.07883858 22.09674194 10.07446289 23.75512695 C10.07438736 24.71574539 10.07431183 25.67636383 10.07423401 26.66609192 C10.06907272 27.6902269 10.06391144 28.71436188 10.05859375 29.76953125 C10.0571788 30.82786667 10.05576385 31.88620209 10.05430603 32.97660828 C10.04871909 36.34901789 10.03616894 39.72136054 10.0234375 43.09375 C10.01842081 45.38346258 10.0138582 47.67317621 10.00976562 49.96289062 C9.99875393 55.56903612 9.98149822 61.17513172 9.9609375 66.78125 C6.0009375 66.78125 2.0409375 66.78125 -2.0390625 66.78125 C-2.0390625 60.84125 -2.0390625 54.90125 -2.0390625 48.78125 C-2.998125 51.00875 -2.998125 51.00875 -3.9765625 53.28125 C-7.27135011 59.87082521 -12.03493043 65.12324673 -18.92578125 67.9765625 C-25.56956949 69.69377753 -33.18728061 70.05440143 -39.5390625 67.15625 C-44.11307591 64.43891856 -47.33906585 60.88123994 -49.0390625 55.78125 C-49.98823223 43.13173802 -49.98823223 43.13173802 -46.0390625 37.78125 C-37.62998504 28.77152415 -26.30665816 27.70633959 -14.7109375 25.58789062 C-13.08285156 25.27948242 -13.08285156 25.27948242 -11.421875 24.96484375 C-10.43590332 24.78493896 -9.44993164 24.60503418 -8.43408203 24.41967773 C-5.87567519 23.95194178 -5.87567519 23.95194178 -4.0390625 21.78125 C-4.0390625 16.88187339 -4.33152734 14.72463021 -7.2890625 10.78125 C-12.12528216 7.31842282 -18.42064632 8.00210577 -24.0390625 8.78125 C-28.06169807 10.27645605 -30.87709642 13.10590766 -33.0390625 16.78125 C-33.76257677 18.76139432 -34.44171639 20.75946315 -35.0390625 22.78125 C-38.6690625 22.12125 -42.2990625 21.46125 -46.0390625 20.78125 C-47.55494162 16.23361264 -46.02904869 13.02197918 -44.0390625 8.78125 C-39.45523237 1.71967386 -33.70506033 -1.87228481 -25.58984375 -3.80078125 C-16.79181011 -5.24241923 -7.77338869 -4.64616335 0 0 Z M-15.8515625 34.59375 C-17.18670898 34.8422168 -17.18670898 34.8422168 -18.54882812 35.09570312 C-24.24271204 36.21421998 -28.9473533 37.75564742 -33.8515625 40.96875 C-35.82762493 43.9848453 -36.16302366 47.25524375 -36.0390625 50.78125 C-34.46475486 54.40215756 -33.35023324 55.57380284 -30.0390625 57.78125 C-24.90609917 58.64738058 -20.32187938 58.37381037 -15.7890625 55.71875 C-8.91702023 50.76254982 -4.80075625 45.14156859 -3.0390625 36.78125 C-3.0390625 35.46125 -3.0390625 34.14125 -3.0390625 32.78125 C-7.42131462 32.78125 -11.56152297 33.75046132 -15.8515625 34.59375 Z " fill="#35353F" transform="translate(464.0390625,226.21875)"/>
<path d="M0 0 C6.39425258 5.00682042 9.65256871 12.50979182 10.63671875 20.42578125 C10.71535156 21.64652344 10.79398438 22.86726563 10.875 24.125 C10.96136719 25.35863281 11.04773438 26.59226563 11.13671875 27.86328125 C11.15347656 28.83652344 11.17023438 29.80976563 11.1875 30.8125 C8.53974184 33.46025816 2.20643797 32.88324189 -1.37084961 32.92602539 C-3.06885589 32.92586905 -4.76686799 32.9203384 -6.46484375 32.91015625 C-7.36497696 32.9087413 -8.26511017 32.90732635 -9.19252014 32.90586853 C-12.04504837 32.9003066 -14.89749581 32.88776127 -17.75 32.875 C-19.69335824 32.86998008 -21.63671771 32.86541803 -23.58007812 32.86132812 C-28.3242495 32.85034966 -33.06836109 32.83311153 -37.8125 32.8125 C-37.36978528 35.07081505 -36.9158019 37.32692311 -36.45703125 39.58203125 C-36.20542236 40.83862549 -35.95381348 42.09521973 -35.69458008 43.38989258 C-34.24653963 49.00851397 -31.92953255 51.22472559 -27.3125 54.6875 C-21.5080464 56.55321723 -14.57280994 57.19601026 -8.7421875 55.05078125 C-3.5469519 51.74828224 -1.50575119 47.54350403 0.1875 41.8125 C1.62489513 41.78537934 3.06243863 41.76604933 4.5 41.75 C5.30050781 41.73839844 6.10101563 41.72679687 6.92578125 41.71484375 C9.1875 41.8125 9.1875 41.8125 12.1875 42.8125 C11.92131883 49.99939169 9.67514821 55.1689424 5.1875 60.8125 C-3.05940129 67.9742827 -13.37530558 68.60113461 -23.86474609 68.0078125 C-30.69890021 67.32251251 -37.23727722 64.50430628 -42.24609375 59.78515625 C-50.76112706 49.06173525 -51.87470685 36.96250211 -50.8125 23.8125 C-49.13620281 14.27982199 -45.44515585 6.4066702 -37.86328125 0.22265625 C-26.58975665 -7.41853429 -11.46577145 -7.34603539 0 0 Z M-33.0625 13.3125 C-35.79125007 17.21071438 -36.8125 18.95263988 -36.8125 23.8125 C-33.04168364 23.8419985 -29.27089769 23.85946364 -25.5 23.875 C-24.44748047 23.88337891 -23.39496094 23.89175781 -22.31054688 23.90039062 C-15.41938314 23.92159421 -8.66219487 23.56921682 -1.8125 22.8125 C-2.98208907 16.64557583 -4.35494445 13.27005555 -8.8125 8.8125 C-17.18162608 3.49992432 -26.9004417 6.46576856 -33.0625 13.3125 Z " fill="#363640" transform="translate(104.8125,227.1875)"/>
<path d="M0 0 C6.34863474 5.92416207 9.48730029 15.31432814 9.78515625 23.7734375 C9.77355469 24.63195312 9.76195312 25.49046875 9.75 26.375 C9.74097656 27.24898437 9.73195313 28.12296875 9.72265625 29.0234375 C9.71105469 29.67570312 9.69945312 30.32796875 9.6875 31 C3.72344643 31.86875579 -2.04059598 32.1339853 -8.0625 32.09765625 C-8.96121826 32.0962413 -9.85993652 32.09482635 -10.78588867 32.09336853 C-13.62812775 32.08781583 -16.47028513 32.07527237 -19.3125 32.0625 C-21.25130094 32.05747888 -23.19010312 32.05291705 -25.12890625 32.04882812 C-29.85680183 32.03786194 -34.58463711 32.02063044 -39.3125 32 C-38.85279543 34.09358298 -38.38673253 36.18577054 -37.91796875 38.27734375 C-37.52967896 40.02519165 -37.52967896 40.02519165 -37.13354492 41.80834961 C-35.73565287 47.24237958 -33.58343686 50.50058463 -28.8125 53.375 C-23.58540279 55.71885785 -17.9224669 55.85890528 -12.3125 55 C-10.61504518 54.05320281 -8.94130542 53.06055206 -7.3125 52 C-6.6525 52 -5.9925 52 -5.3125 52 C-3.82109979 48.37802806 -2.5250738 44.72433382 -1.3125 41 C0.31240954 40.97301811 1.93744633 40.95361243 3.5625 40.9375 C4.46742188 40.92589844 5.37234375 40.91429687 6.3046875 40.90234375 C8.6875 41 8.6875 41 10.6875 42 C10.45070366 49.45908478 8.84856585 54.47620864 3.6875 60 C-5.82041744 67.24485083 -15.71065269 68.05177547 -27.3125 67 C-35.98646672 65.11780591 -42.02759073 59.90637859 -47.625 53.25 C-53.7257328 41.50044054 -53.86380631 28.28154244 -50.29296875 15.69140625 C-47.14327583 7.04543645 -41.31054023 0.54790523 -33.3125 -4 C-21.49547236 -8.00577208 -10.63093638 -6.41867857 0 0 Z M-34.5625 12.4375 C-36.9812156 15.9791907 -38.3125 18.6867604 -38.3125 23 C-34.35418267 23.02940464 -30.39589403 23.04693328 -26.4375 23.0625 C-25.32890625 23.07087891 -24.2203125 23.07925781 -23.078125 23.08789062 C-16.42198511 23.10746751 -9.9185883 22.82879778 -3.3125 22 C-3.43955279 15.90146593 -5.46674501 13.0725555 -9.5234375 8.6015625 C-13.44369806 5.09215894 -18.38594767 5.67071783 -23.36328125 5.71875 C-28.58618637 6.21682837 -31.13303009 8.72224093 -34.5625 12.4375 Z " fill="#363540" transform="translate(274.3125,228)"/>
<path d="M0 0 C4.79770262 3.46640294 7.52827806 6.75497471 8.640625 12.7578125 C8.90132712 14.94633818 9.08767452 17.11134813 9.1875 19.3125 C5.01012526 20.90388085 1.65589215 21.52528058 -2.8125 21.3125 C-2.95945313 20.70921875 -3.10640625 20.1059375 -3.2578125 19.484375 C-4.49180657 15.08738463 -5.21428342 12.81101381 -8.8125 9.8125 C-14.23781223 7.09984388 -18.83442064 6.78256139 -24.8125 7.3125 C-28.92525909 8.85478466 -30.37030938 9.64921407 -32.8125 13.3125 C-33.39595476 16.26996492 -33.39595476 16.26996492 -32.8125 19.3125 C-28.34267619 24.40809914 -21.82404725 24.98112163 -15.5 26.3125 C4.45586273 30.55793193 4.45586273 30.55793193 10.1875 38.3125 C12.57450219 44.82250597 12.63555617 50.83159341 10.1875 57.3125 C7.18794402 62.81168597 1.77241437 64.98545235 -3.8125 67.3125 C-13.28805145 70.05382394 -26.90540975 69.69195657 -35.8125 65.3125 C-40.25051181 62.7917704 -43.15880774 60.3951778 -45.8125 56 C-46.98062007 51.69255724 -47.30783974 47.7515061 -46.8125 43.3125 C-45.14907163 41.64907163 -43.0299291 41.95201903 -40.75 41.75 C-39.83089844 41.66621094 -38.91179687 41.58242188 -37.96484375 41.49609375 C-37.25457031 41.43550781 -36.54429687 41.37492187 -35.8125 41.3125 C-35.65394531 41.98796875 -35.49539062 42.6634375 -35.33203125 43.359375 C-33.84146718 49.15385645 -33.84146718 49.15385645 -30.3125 53.875 C-25.87980551 56.42379933 -21.97866325 56.49548625 -17 56.5 C-15.95102539 56.51836914 -15.95102539 56.51836914 -14.88085938 56.53710938 C-10.46688345 56.54949659 -6.91118416 55.94039183 -2.8125 54.3125 C-2.5082344 52.90263562 -2.24529092 51.48381189 -2 50.0625 C-1.84917969 49.27359375 -1.69835937 48.4846875 -1.54296875 47.671875 C-1.59894495 45.10961771 -1.59894495 45.10961771 -3.83984375 43.13671875 C-7.20420904 41.07212139 -10.37594354 40.16911289 -14.1875 39.375 C-19.83933502 38.06856214 -25.41137616 36.64444509 -30.9375 34.875 C-32.11570313 34.50503906 -33.29390625 34.13507813 -34.5078125 33.75390625 C-38.90898468 31.83424604 -42.34455324 29.48075164 -45.08984375 25.42578125 C-47.10969904 19.91599849 -47.22056601 15.02139349 -45.8125 9.3125 C-42.17400878 2.2954098 -37.08626371 -0.95983861 -29.8125 -3.6875 C-19.73124373 -6.09250558 -8.92164335 -5.4577753 0 0 Z " fill="#363540" transform="translate(166.8125,226.6875)"/>
<path d="M0 0 C5.82822318 4.71859843 9.36046091 10.06478562 10.48828125 17.5234375 C10.57078125 18.5134375 10.65328125 19.5034375 10.73828125 20.5234375 C6.40407426 22.55509702 2.45231913 23.04404382 -2.26171875 23.5234375 C-2.50921875 22.3065625 -2.75671875 21.0896875 -3.01171875 19.8359375 C-4.15428972 15.28979244 -5.94939339 11.9763145 -10.02734375 9.4140625 C-14.56538582 7.60519258 -19.47436181 8.02221087 -24.26171875 8.5234375 C-29.80361293 10.9417186 -32.66030524 15.2169685 -35.26171875 20.5234375 C-37.91384391 28.21293247 -37.24931413 39.24119103 -34.23828125 46.7265625 C-31.5392094 51.6928547 -27.4976391 54.64640945 -22.26171875 56.5234375 C-16.2888302 57.23472765 -11.34233025 57.03147878 -6.26171875 53.5234375 C-1.9069399 49.41059081 -1.28375199 45.22978977 -0.26171875 39.5234375 C4.02828125 40.1834375 8.31828125 40.8434375 12.73828125 41.5234375 C11.42262311 51.09186037 9.5543036 57.71282844 1.86328125 63.8984375 C-5.85881158 69.68192962 -16.0461989 69.44753074 -25.26171875 68.5234375 C-33.36581226 66.80290619 -40.00088724 63.28859928 -44.7265625 56.3828125 C-49.20921511 48.74281328 -50.65330793 41.54082045 -50.63671875 32.7734375 C-50.63510742 31.88962402 -50.63349609 31.00581055 -50.63183594 30.09521484 C-50.44522177 20.13697073 -47.86082933 11.20653474 -40.69921875 3.9375 C-29.96159605 -5.88934221 -12.4745351 -8.14399701 0 0 Z " fill="#363540" transform="translate(401.26171875,226.4765625)"/>
<path d="M0 0 C2.97 0 5.94 0 9 0 C9 4.95 9 9.9 9 15 C15.27 15 21.54 15 28 15 C28 18.63 28 22.26 28 26 C21.73 26 15.46 26 9 26 C9.07398925 31.90893448 9.15680875 37.81635199 9.26245117 43.72460938 C9.29569726 45.73429499 9.32373019 47.74407391 9.34643555 49.75390625 C9.37998722 52.64363347 9.43230337 55.53250593 9.48828125 58.421875 C9.49467117 59.31992859 9.5010611 60.21798218 9.50764465 61.14324951 C9.61582999 66.03347475 9.61582999 66.03347475 11.33276367 70.54394531 C14.06354068 72.92882657 16.43646954 72.88316294 20 73 C22.75793962 72.51302115 25.30713162 71.80313618 28 71 C28 75.29 28 79.58 28 84 C20.03726698 86.31643142 12.6293951 87.38135568 4.7890625 84.0390625 C0.04610211 81.28441738 -2.24018449 77.24515356 -3.6161499 72.08151245 C-4.37306589 67.97696729 -4.24166835 63.85124425 -4.1953125 59.69140625 C-4.1924826 58.72468491 -4.18965271 57.75796356 -4.18673706 56.76194763 C-4.17560407 53.69533548 -4.15051224 50.62902285 -4.125 47.5625 C-4.11496131 45.47461361 -4.10583701 43.38672262 -4.09765625 41.29882812 C-4.07568727 36.19910456 -4.04120507 31.09960295 -4 26 C-6.97 26 -9.94 26 -13 26 C-13 22.7 -13 19.4 -13 16 C-10.72135417 15.54427083 -8.44270833 15.08854167 -6.1640625 14.6328125 C-3.81326077 14.13341068 -3.81326077 14.13341068 -2 12 C-1.3162387 9.11282395 -1.3162387 9.11282395 -0.875 5.875 C-0.62363281 4.23144531 -0.62363281 4.23144531 -0.3671875 2.5546875 C-0.24601562 1.71164063 -0.12484375 0.86859375 0 0 Z " fill="#373641" transform="translate(298,209)"/>
<path d="M0 0 C2.64 0 5.28 0 8 0 C8 4.95 8 9.9 8 15 C14.27 15 20.54 15 27 15 C27 18.63 27 22.26 27 26 C20.73 26 14.46 26 8 26 C8.0971362 31.44473963 8.19999168 36.88875366 8.31738281 42.33300781 C8.35557122 44.18352751 8.39044151 46.03411887 8.421875 47.88476562 C8.46774641 50.55104107 8.52570359 53.21682748 8.5859375 55.8828125 C8.59748871 56.70492218 8.60903992 57.52703186 8.62094116 58.37405396 C8.7370056 62.93233325 9.18195975 66.74085078 11 71 C12.98626077 72.75707684 14.27087824 73.03000501 16.8984375 72.921875 C20.3697981 72.53473441 23.60194998 71.8495125 27 71 C27 75.29 27 79.58 27 84 C18.43448392 86.44729031 11.11940707 87.36396397 3 83 C-1.24707834 79.49154398 -3.6801101 76.17294172 -4.24050903 70.61442566 C-4.23606781 69.79057877 -4.23162659 68.96673187 -4.22705078 68.11791992 C-4.22689972 67.17732224 -4.22674866 66.23672455 -4.22659302 65.2676239 C-4.21627045 64.2653627 -4.20594788 63.2631015 -4.1953125 62.23046875 C-4.1924826 61.19432938 -4.18965271 60.15819 -4.18673706 59.09065247 C-4.17556454 55.78948293 -4.15046505 52.48858719 -4.125 49.1875 C-4.11496643 46.94596747 -4.10584124 44.70443067 -4.09765625 42.46289062 C-4.07563474 36.97515533 -4.04112476 31.48762405 -4 26 C-7.3 26 -10.6 26 -14 26 C-14 22.7 -14 19.4 -14 16 C-11.4609375 15.57682292 -8.921875 15.15364583 -6.3828125 14.73046875 C-3.65587522 14.16948699 -3.65587522 14.16948699 -2 11 C-1.55888435 9.11845117 -1.1890733 7.21937362 -0.875 5.3125 C-0.70742187 4.31863281 -0.53984375 3.32476562 -0.3671875 2.30078125 C-0.24601563 1.54152344 -0.12484375 0.78226563 0 0 Z " fill="#363640" transform="translate(192,209)"/>
<path d="M0 0 C4.29 0 8.58 0 13 0 C13 22.77 13 45.54 13 69 C6 70 6 70 0 69 C0 46.23 0 23.46 0 0 Z " fill="#373741" transform="translate(331,224)"/>
<path d="M0 0 C5.5173314 0 8.09857709 1.54222023 11.9296875 5.1328125 C14.43777914 7.39482722 17.0965817 9.36758213 19.8125 11.375 C20.83472656 12.14070312 21.85695313 12.90640625 22.91015625 13.6953125 C24.93003856 15.20192509 26.95840392 16.69724822 28.99609375 18.1796875 C29.90488281 18.86289063 30.81367187 19.54609375 31.75 20.25 C32.56984375 20.85328125 33.3896875 21.4565625 34.234375 22.078125 C36 24 36 24 36.33203125 26.62109375 C36 29 36 29 34.9375 30.8125 C31.88307844 32.68456482 29.52165401 32.32546958 26 32 C22.9296875 30.1640625 22.9296875 30.1640625 19.875 27.625 C18.74927302 26.70632608 17.62295259 25.78837896 16.49609375 24.87109375 C15.63733643 24.15928955 15.63733643 24.15928955 14.76123047 23.43310547 C13.00739309 22.00601573 11.221235 20.63865779 9.41015625 19.28515625 C8.53738037 18.63135986 8.53738037 18.63135986 7.64697266 17.96435547 C7.08284668 17.54299316 6.5187207 17.12163086 5.9375 16.6875 C2.01240139 13.75216667 -1.08480196 10.94984867 -4 7 C-2.92598892 4.08482708 -2.22189824 2.22189824 0 0 Z " fill="#DA6432" transform="translate(17,199)"/>
<path d="M0 0 C0.76787842 0.0530127 1.53575684 0.10602539 2.3269043 0.16064453 C7.98686488 0.58945657 13.42623577 1.37218394 18.9375 2.75 C20.53851563 3.12705078 20.53851563 3.12705078 22.171875 3.51171875 C30.76738794 5.57988794 30.76738794 5.57988794 31.9375 6.75 C32.30836093 12.5910596 32.30836093 12.5910596 31.9375 14.75 C28.91205666 16.76696222 28.32682618 17.00811096 24.9375 16.9375 C24.256875 16.93105469 23.57625 16.92460937 22.875 16.91796875 C20.9375 16.75 20.9375 16.75 17.9375 15.75 C16.25294025 15.57341553 14.56459564 15.43162257 12.875 15.3125 C7.44964685 14.85381757 2.23886033 13.97616497 -3.0625 12.75 C-3.75859375 12.5953125 -4.4546875 12.440625 -5.171875 12.28125 C-8.87511367 11.36309165 -9.86177797 11.05108304 -12.0625 7.75 C-11.875 4.6875 -11.875 4.6875 -11.0625 1.75 C-7.23389619 -0.80240254 -4.38932869 -0.33439798 0 0 Z " fill="#F55109" transform="translate(15.0625,234.25)"/>
<path d="M0 0 C3.79663768 6.01989397 6.02527383 12.25990367 8.25 19 C8.61351563 20.05445313 8.97703125 21.10890625 9.3515625 22.1953125 C12.73128367 32.334476 12.73128367 32.334476 12 38 C9.45395938 40.32780856 7.85964749 40.93709896 4.4375 41.1875 C0.46542802 39.25238801 -0.55687582 35.95361567 -2 32 C-3.60845894 27.03682886 -5.01925825 22.01965056 -6.42285156 16.99560547 C-7.39947962 13.6187198 -8.54720438 10.29562577 -9.71484375 6.98046875 C-10.09079713 4.36939526 -9.43651302 3.1712541 -8 1 C-5.29120665 -0.35439668 -2.99066732 -0.06501451 0 0 Z " fill="#EA5413" transform="translate(53,181)"/>
<path d="M0 0 C0 0.66 0 1.32 0 2 C0.94875 2 1.8975 2 2.875 2 C8.7198147 2.80618134 12.70387296 7.28233342 17 11 C18.20764258 11.89676429 19.41584192 12.79278019 20.625 13.6875 C23 16 23 16 23.375 18.8125 C23.25125 19.534375 23.1275 20.25625 23 21 C18.12335991 21.34833144 15.22949995 20.41685712 11 18 C11 16.68 11 15.36 11 14 C8.525 13.505 8.525 13.505 6 13 C5.67 12.01 5.34 11.02 5 10 C4.01 10 3.02 10 2 10 C2 9.34 2 8.68 2 8 C1.34 8 0.68 8 0 8 C0 7.34 0 6.68 0 6 C-1.1446875 5.9071875 -1.1446875 5.9071875 -2.3125 5.8125 C-5 5 -5 5 -6.8125 2.4375 C-7.204375 1.633125 -7.59625 0.82875 -8 0 C-4.71023192 -1.09658936 -3.28696233 -0.79953138 0 0 Z " fill="#F95104" transform="translate(26,206)"/>
<path d="M0 0 C2.00720923 0.28674418 4.0085944 0.61866701 6 1 C6.20496094 2.18078125 6.40992188 3.3615625 6.62109375 4.578125 C6.89315305 6.13542997 7.16529268 7.6927209 7.4375 9.25 C7.57220703 10.02730469 7.70691406 10.80460938 7.84570312 11.60546875 C7.97783203 12.35957031 8.10996094 13.11367187 8.24609375 13.890625 C8.42676392 14.92751465 8.42676392 14.92751465 8.61108398 15.98535156 C8.73942627 16.65018555 8.86776855 17.31501953 9 18 C9.11867432 18.72413086 9.23734863 19.44826172 9.35961914 20.19433594 C9.57094482 20.79020508 9.78227051 21.38607422 10 22 C10.99 22.33 11.98 22.66 13 23 C15.71232939 27.06849409 15.30699887 29.16476784 15 34 C14.34 34.66 13.68 35.32 13 36 C8.44444444 35.44444444 8.44444444 35.44444444 7 34 C6.92773498 32.14712498 6.9161878 30.29166122 6.9375 28.4375 C6.94652344 27.42558594 6.95554687 26.41367188 6.96484375 25.37109375 C6.97644531 24.58863281 6.98804688 23.80617187 7 23 C6.34 23 5.68 23 5 23 C4.73445313 22.09636719 4.46890625 21.19273437 4.1953125 20.26171875 C3.84210937 19.08222656 3.48890625 17.90273437 3.125 16.6875 C2.77695312 15.51574219 2.42890625 14.34398437 2.0703125 13.13671875 C1.11234547 9.89088275 1.11234547 9.89088275 -1 7 C-1.1875 3.875 -1.1875 3.875 -1 1 C-0.67 0.67 -0.34 0.34 0 0 Z " fill="#FA5004" transform="translate(48,184)"/>
<path d="M0 0 C3 2.0625 3 2.0625 5 5 C5 8.6875 5 8.6875 4 12 C-0.04686536 14.69791024 -3.25450886 14.53108385 -8 14 C-10.5625 12.9375 -10.5625 12.9375 -12 11 C-12.74757282 5.01941748 -12.74757282 5.01941748 -10.625 2.125 C-7.02826479 -0.36504745 -4.35765689 -0.44315155 0 0 Z " fill="#36363F" transform="translate(341,201)"/>
<path d="M0 0 C-0.598125 0.28875 -1.19625 0.5775 -1.8125 0.875 C-4.19327792 2.04742026 -4.19327792 2.04742026 -7 4 C-6.67 5.65 -6.34 7.3 -6 9 C6.24714263 11.68979301 18.56791641 13.41042429 31 15 C31 12.69 31 10.38 31 8 C24.4 6.68 17.8 5.36 11 4 C11 3.34 11 2.68 11 2 C31.73786408 4.73786408 31.73786408 4.73786408 34 7 C34.37086093 12.8410596 34.37086093 12.8410596 34 15 C30.97455666 17.01696222 30.38932618 17.25811096 27 17.1875 C26.319375 17.18105469 25.63875 17.17460937 24.9375 17.16796875 C23 17 23 17 20 16 C18.31544025 15.82341553 16.62709564 15.68162257 14.9375 15.5625 C9.51214685 15.10381757 4.30136033 14.22616497 -1 13 C-1.69609375 12.8453125 -2.3921875 12.690625 -3.109375 12.53125 C-6.81261367 11.61309165 -7.79927797 11.30108304 -10 8 C-9.8125 4.9375 -9.8125 4.9375 -9 2 C-5.5647952 -0.29013653 -4.014669 -0.17842973 0 0 Z " fill="#D0724B" transform="translate(13,234)"/>
<path d="M0 0 C4.00305369 3.54944987 5.21171591 8.07890712 7 13 C7.58394531 14.57587891 7.58394531 14.57587891 8.1796875 16.18359375 C11.38779667 25.22161165 11.38779667 25.22161165 10 29 C4.23143019 23.38733749 2.43263311 16.61482537 1.8203125 8.66796875 C1.81396982 7.1108397 1.89407715 5.55353514 2 4 C0.02 4 -1.96 4 -4 4 C-4.33 5.98 -4.66 7.96 -5 10 C-5.33 10 -5.66 10 -6 10 C-6.04241723 7.66705225 -6.04092937 5.33297433 -6 3 C-5 2 -5 2 -2.4375 1.9375 C-1.2309375 1.9684375 -1.2309375 1.9684375 0 2 C0 1.34 0 0.68 0 0 Z " fill="#DB612D" transform="translate(52,181)"/>
<path d="M0 0 C0.66 0 1.32 0 2 0 C2 0.66 2 1.32 2 2 C2.99 2.33 3.98 2.66 5 3 C7.71232939 7.06849409 7.30699887 9.16476784 7 14 C6.34 14.66 5.68 15.32 5 16 C0.44444444 15.44444444 0.44444444 15.44444444 -1 14 C-1.33243079 9.26774995 -1.18893275 4.60711442 0 0 Z " fill="#FB4F04" transform="translate(56,204)"/>
<path d="M0 0 C3.5 0.125 3.5 0.125 7 1 C8.3125 2.8125 8.3125 2.8125 9 5 C9.37125 5.7425 9.7425 6.485 10.125 7.25 C10.41375 7.8275 10.7025 8.405 11 9 C10.34 9 9.68 9 9 9 C9 8.34 9 7.68 9 7 C6.69 7.33 4.38 7.66 2 8 C2.66 9.32 3.32 10.64 4 12 C0.95525635 11.67083852 -0.63608594 11.32869657 -2.9375 9.25 C-4 7 -4 7 -3.3125 4.375 C-2 2 -2 2 0 0 Z " fill="#ED5512" transform="translate(17,199)"/>
<path d="M0 0 C1.46373047 0.16628906 1.46373047 0.16628906 2.95703125 0.3359375 C3.69308594 0.43132812 4.42914063 0.52671875 5.1875 0.625 C5.1875 1.615 5.1875 2.605 5.1875 3.625 C6.00734375 3.67398438 6.8271875 3.72296875 7.671875 3.7734375 C8.74953125 3.84820312 9.8271875 3.92296875 10.9375 4 C12.00484375 4.06960937 13.0721875 4.13921875 14.171875 4.2109375 C16.98956432 4.5978223 18.7705366 5.18186166 21.1875 6.625 C15.48129872 6.72839663 10.02954518 6.36363432 4.375 5.625 C-1.2001432 4.88715948 -1.2001432 4.88715948 -6.8125 4.625 C-6.8125 3.965 -6.8125 3.305 -6.8125 2.625 C-8.1325 2.295 -9.4525 1.965 -10.8125 1.625 C-6.91531829 -0.24165742 -4.27165815 -0.51465761 0 0 Z " fill="#E45A21" transform="translate(18.8125,234.375)"/>
<path d="M0 0 C0 0.66 0 1.32 0 2 C-1.65 2.33 -3.3 2.66 -5 3 C-5.38667219 9.02564164 -4.05074263 13.61507654 -2 19.25 C-1.43353201 20.83713103 -0.87086156 22.42562398 -0.3125 24.015625 C-0.06113281 24.70946289 0.19023438 25.40330078 0.44921875 26.11816406 C1 28 1 28 1 31 C0.34 31 -0.32 31 -1 31 C-2.40173328 26.94623024 -3.76660001 22.88097521 -5.125 18.8125 C-5.52332031 17.66201172 -5.92164063 16.51152344 -6.33203125 15.32617188 C-6.69941406 14.21435547 -7.06679688 13.10253906 -7.4453125 11.95703125 C-7.79094238 10.93585205 -8.13657227 9.91467285 -8.49267578 8.86254883 C-9.08843592 5.50100524 -8.64853946 3.95426439 -7 1 C-4.53721199 -0.231394 -2.7204945 -0.07159196 0 0 Z " fill="#D06D45" transform="translate(52,181)"/>
<path d="M0 0 C2.77022508 1.30659488 5.17095325 2.75922085 7.609375 4.609375 C8.28226563 5.11726562 8.95515625 5.62515625 9.6484375 6.1484375 C10.34195313 6.67695313 11.03546875 7.20546875 11.75 7.75 C12.42804687 8.26304687 13.10609375 8.77609375 13.8046875 9.3046875 C15.17209634 10.33934286 16.53863682 11.37514687 17.90429688 12.41210938 C21.25972307 14.95447796 24.62972499 17.47736606 28 20 C27.01 20.33 26.02 20.66 25 21 C22.546875 19.26953125 22.546875 19.26953125 19.75 16.8125 C15.19420757 12.90865113 15.19420757 12.90865113 10.125 9.75 C5.66952387 7.25493337 2.81466692 4.22200037 0 0 Z " fill="#D06E49" transform="translate(23,201)"/>
<path d="M0 0 C0.78375 0.04125 1.5675 0.0825 2.375 0.125 C1.385 1.61 1.385 1.61 0.375 3.125 C-0.615 3.125 -1.605 3.125 -2.625 3.125 C-2.295 6.095 -1.965 9.065 -1.625 12.125 C-3.275 10.475 -4.925 8.825 -6.625 7.125 C-4.07142857 0.19387755 -4.07142857 0.19387755 0 0 Z " fill="#CE683D" transform="translate(19.625,198.875)"/>
<path d="M0 0 C2 2 2 2 2.4375 5.4375 C2 9 2 9 -0.1875 11 C-3.38801307 12.1379602 -4.83954158 12.19584913 -8 11 C-10 8 -10 8 -9.625 5.8125 C-9.41875 5.214375 -9.2125 4.61625 -9 4 C-8.01 5.65 -7.02 7.3 -6 9 C-4.35 8.67 -2.7 8.34 -1 8 C-0.67 5.36 -0.34 2.72 0 0 Z " fill="#C87653" transform="translate(63,210)"/>
<path d="M0 0 C2.52623786 2.52623786 4.72438303 5.24530578 7 8 C5.71086513 8.67154933 4.41859796 9.33708859 3.125 10 C2.40570313 10.37125 1.68640625 10.7425 0.9453125 11.125 C-1 12 -1 12 -3 12 C-2 9 -2 9 1 7 C0.4740625 5.824375 0.4740625 5.824375 -0.0625 4.625 C-0.371875 3.75875 -0.68125 2.8925 -1 2 C-0.67 1.34 -0.34 0.68 0 0 Z " fill="#2F2F39" transform="translate(397,282)"/>
<path d="M0 0 C3.03852705 1.40976705 5.5939595 3.08870228 8.25 5.125 C8.95640625 5.66382813 9.6628125 6.20265625 10.390625 6.7578125 C10.92171875 7.16773438 11.4528125 7.57765625 12 8 C10.68 8.33 9.36 8.66 8 9 C8 8.34 8 7.68 8 7 C5.525 6.01 5.525 6.01 3 5 C3 4.34 3 3.68 3 3 C2.01 2.67 1.02 2.34 0 2 C0 1.34 0 0.68 0 0 Z " fill="#EA5714" transform="translate(31,209)"/>
<path d="M0 0 C2.31 0.33 4.62 0.66 7 1 C3.82469891 3.72168665 1.05745175 5.85559053 -3 7 C-5.3125 6.625 -5.3125 6.625 -7 6 C-5.02 5.67 -3.04 5.34 -1 5 C-0.67 3.35 -0.34 1.7 0 0 Z " fill="#302F36" transform="translate(166,287)"/>
<path d="M0 0 C0.44730469 0.40992188 0.89460938 0.81984375 1.35546875 1.2421875 C4.73744485 4.25640074 7.579668 6.66050545 12 8 C9.25421329 9.05607181 7.81357987 8.96271597 4.875 8.375 C2 7 2 7 0.625 4.5 C0 2 0 2 0 0 Z " fill="#303037" transform="translate(367,275)"/>
<path d="M0 0 C0.66 0.33 1.32 0.66 2 1 C2.1953125 7.0546875 2.1953125 7.0546875 2 9 C1.34 9.66 0.68 10.32 0 11 C-2.5625 10.75 -2.5625 10.75 -5 10 C-5.33 9.34 -5.66 8.68 -6 8 C-4.02 8 -2.04 8 0 8 C0 5.36 0 2.72 0 0 Z " fill="#E35718" transform="translate(61,209)"/>
<path d="M0 0 C0.99 0.33 1.98 0.66 3 1 C3.9765625 7.0546875 3.9765625 7.0546875 4 9 C3.34 9.66 2.68 10.32 2 11 C1.8046875 8.94921875 1.609375 6.8984375 1.4140625 4.84765625 C1.27742188 4.23792969 1.14078125 3.62820312 1 3 C0.34 2.67 -0.32 2.34 -1 2 C-0.67 1.34 -0.34 0.68 0 0 Z " fill="#F35409" transform="translate(58,206)"/>
<path d="M0 0 C3.43752007 1.5277867 6.18953688 3.50181056 9 6 C9 6.66 9 7.32 9 8 C4.12314139 6.64531705 2.51407619 4.28324091 0 0 Z " fill="#DC6838" transform="translate(23,201)"/>
<path d="M0 0 C0.86625 0.4640625 0.86625 0.4640625 1.75 0.9375 C3.84294184 1.92583364 5.74535275 2.5168613 8 3 C8 3.99 8 4.98 8 6 C6.35 6 4.7 6 3 6 C2.01 4.02 1.02 2.04 0 0 Z " fill="#E95119" transform="translate(29,217)"/>
<path d="M0 0 C1.5625 1.8125 1.5625 1.8125 3 4 C2.67 4.99 2.34 5.98 2 7 C-0.13093906 5.93453047 -1.36587557 4.70840281 -3 3 C-2.01 2.67 -1.02 2.34 0 2 C0 1.34 0 0.68 0 0 Z " fill="#303038" transform="translate(164,279)"/>
<path d="M0 0 C1.98 0 3.96 0 6 0 C7.2077558 3.62326739 6.54311128 4.64146369 5 8 C4 6 4 6 4 2 C2.68 1.34 1.36 0.68 0 0 Z " fill="#D2693A" transform="translate(40,240)"/>
<path d="" fill="#000000" transform="translate(0,0)"/>
<path d="" fill="#000000" transform="translate(0,0)"/>
<path d="" fill="#000000" transform="translate(0,0)"/>
<path d="" fill="#000000" transform="translate(0,0)"/>
</svg>
